<svg width="342" height="20" viewBox="0 0 342 20" fill="none" xmlns="http://www.w3.org/2000/svg">
<path d="M244.192 13.3078C244.25 13.3659 244.296 13.4348 244.328 13.5107C244.359 13.5865 244.375 13.6679 244.375 13.75C244.375 13.8321 244.359 13.9135 244.328 13.9893C244.296 14.0652 244.25 14.1341 244.192 14.1922L241.692 16.6922C241.634 16.7503 241.565 16.7964 241.489 16.8279C241.413 16.8593 241.332 16.8755 241.25 16.8755C241.168 16.8755 241.087 16.8593 241.011 16.8279C240.935 16.7964 240.866 16.7503 240.808 16.6922L238.308 14.1922C238.25 14.1341 238.204 14.0652 238.172 13.9893C238.141 13.9134 238.125 13.8321 238.125 13.75C238.125 13.6679 238.141 13.5866 238.172 13.5107C238.204 13.4348 238.25 13.3659 238.308 13.3078C238.425 13.1905 238.584 13.1247 238.75 13.1247C238.832 13.1247 238.913 13.1408 238.989 13.1723C239.065 13.2037 239.134 13.2497 239.192 13.3078L240.625 14.7414V3.75C240.625 3.58424 240.691 3.42527 240.808 3.30806C240.925 3.19085 241.084 3.125 241.25 3.125C241.416 3.125 241.575 3.19085 241.692 3.30806C241.809 3.42527 241.875 3.58424 241.875 3.75V14.7414L243.308 13.3078C243.366 13.2497 243.435 13.2036 243.511 13.1722C243.587 13.1407 243.668 13.1245 243.75 13.1245C243.832 13.1245 243.913 13.1407 243.989 13.1722C244.065 13.2036 244.134 13.2497 244.192 13.3078ZM251.692 5.80782L249.192 3.30782C249.134 3.24971 249.065 3.20361 248.989 3.17215C248.913 3.1407 248.832 3.12451 248.75 3.12451C248.668 3.12451 248.587 3.1407 248.511 3.17215C248.435 3.20361 248.366 3.24971 248.308 3.30782L245.808 5.80782C245.691 5.92509 245.625 6.08415 245.625 6.25C245.625 6.41586 245.691 6.57492 245.808 6.69219C245.925 6.80947 246.084 6.87535 246.25 6.87535C246.416 6.87535 246.575 6.80947 246.692 6.69219L248.125 5.2586V16.25C248.125 16.4158 248.191 16.5747 248.308 16.6919C248.425 16.8092 248.584 16.875 248.75 16.875C248.916 16.875 249.075 16.8092 249.192 16.6919C249.309 16.5747 249.375 16.4158 249.375 16.25V5.2586L250.808 6.69219C250.925 6.80947 251.084 6.87535 251.25 6.87535C251.416 6.87535 251.575 6.80947 251.692 6.69219C251.809 6.57492 251.875 6.41586 251.875 6.25C251.875 6.08415 251.809 5.92509 251.692 5.80782Z" fill="#5E5E6B"/>
<path d="M260.424 16V4.64H261.976V16H260.424ZM264.635 16V7.504H266.011L266.075 9.728L265.883 9.584C265.99 9.06133 266.176 8.63467 266.443 8.304C266.71 7.96267 267.03 7.712 267.403 7.552C267.787 7.392 268.203 7.312 268.651 7.312C269.291 7.312 269.824 7.456 270.251 7.744C270.678 8.02133 270.992 8.40533 271.195 8.896C271.408 9.376 271.515 9.92 271.515 10.528V16H269.995V10.992C269.995 10.48 269.936 10.048 269.819 9.696C269.712 9.344 269.531 9.07733 269.275 8.896C269.019 8.71467 268.688 8.624 268.283 8.624C267.654 8.624 267.142 8.82667 266.747 9.232C266.352 9.62667 266.155 10.2133 266.155 10.992V16H264.635ZM275.495 16L272.407 7.504H274.055L276.439 14.448L278.839 7.504H280.471L277.383 16H275.495ZM284.879 16.192C284.068 16.192 283.364 16.0107 282.767 15.648C282.18 15.2853 281.727 14.7733 281.407 14.112C281.087 13.44 280.927 12.6507 280.927 11.744C280.927 10.848 281.087 10.0693 281.407 9.408C281.727 8.74667 282.175 8.23467 282.751 7.872C283.337 7.49867 284.031 7.312 284.831 7.312C285.588 7.312 286.255 7.488 286.831 7.84C287.407 8.192 287.855 8.704 288.175 9.376C288.495 10.0373 288.655 10.8427 288.655 11.792V12.208H282.511C282.564 13.072 282.799 13.7227 283.215 14.16C283.631 14.5973 284.191 14.816 284.895 14.816C285.428 14.816 285.865 14.6933 286.207 14.448C286.548 14.2027 286.783 13.872 286.911 13.456L288.527 13.584C288.303 14.352 287.871 14.9813 287.231 15.472C286.591 15.952 285.807 16.192 284.879 16.192ZM282.511 10.976H287.007C286.953 10.1867 286.729 9.60533 286.335 9.232C285.94 8.85867 285.439 8.672 284.831 8.672C284.201 8.672 283.684 8.86933 283.279 9.264C282.873 9.648 282.617 10.2187 282.511 10.976ZM290.264 16V7.504H291.624L291.688 9.712L291.56 9.664C291.667 8.91733 291.896 8.37333 292.248 8.032C292.611 7.68 293.091 7.504 293.688 7.504H294.52V8.896H293.704C293.278 8.896 292.92 8.97067 292.632 9.12C292.355 9.26933 292.142 9.49333 291.992 9.792C291.854 10.0907 291.784 10.4693 291.784 10.928V16H290.264ZM298.71 16C297.931 16 297.35 15.8187 296.966 15.456C296.592 15.0933 296.406 14.528 296.406 13.76V5.52H297.926V13.68C297.926 14.0747 298.011 14.3467 298.182 14.496C298.352 14.6453 298.614 14.72 298.966 14.72H300.182V16H298.71ZM295.142 8.784V7.504H300.182V8.784H295.142ZM308.989 16.192C308.178 16.192 307.474 16.0107 306.877 15.648C306.29 15.2853 305.832 14.7733 305.501 14.112C305.181 13.44 305.021 12.6507 305.021 11.744C305.021 10.848 305.181 10.0693 305.501 9.408C305.832 8.74667 306.29 8.23467 306.877 7.872C307.474 7.49867 308.178 7.312 308.989 7.312C309.65 7.312 310.242 7.42933 310.765 7.664C311.288 7.89867 311.714 8.24 312.045 8.688C312.376 9.136 312.589 9.68 312.685 10.32L311.101 10.432C311.005 9.86667 310.765 9.43467 310.381 9.136C310.008 8.83733 309.544 8.688 308.989 8.688C308.242 8.688 307.656 8.96 307.229 9.504C306.813 10.048 306.605 10.7947 306.605 11.744C306.605 12.704 306.813 13.456 307.229 14C307.656 14.544 308.242 14.816 308.989 14.816C309.544 14.816 310.008 14.6613 310.381 14.352C310.765 14.032 311.005 13.5573 311.101 12.928L312.685 13.024C312.589 13.664 312.376 14.224 312.045 14.704C311.725 15.1733 311.304 15.5413 310.781 15.808C310.258 16.064 309.661 16.192 308.989 16.192ZM317.548 16.192C316.748 16.192 316.049 16.0107 315.452 15.648C314.855 15.2853 314.391 14.7733 314.06 14.112C313.74 13.44 313.58 12.6507 313.58 11.744C313.58 10.8373 313.74 10.0533 314.06 9.392C314.391 8.73067 314.855 8.21867 315.452 7.856C316.049 7.49333 316.748 7.312 317.548 7.312C318.337 7.312 319.025 7.49333 319.612 7.856C320.209 8.21867 320.673 8.73067 321.004 9.392C321.335 10.0533 321.5 10.8373 321.5 11.744C321.5 12.6507 321.335 13.44 321.004 14.112C320.673 14.7733 320.209 15.2853 319.612 15.648C319.025 16.0107 318.337 16.192 317.548 16.192ZM317.548 14.816C318.295 14.816 318.876 14.544 319.292 14C319.708 13.456 319.916 12.704 319.916 11.744C319.916 10.7947 319.708 10.048 319.292 9.504C318.876 8.96 318.295 8.688 317.548 8.688C316.801 8.688 316.215 8.96 315.788 9.504C315.372 10.048 315.164 10.7947 315.164 11.744C315.164 12.704 315.372 13.456 315.788 14C316.215 14.544 316.801 14.816 317.548 14.816ZM324.959 16C324.425 16 323.999 15.8667 323.679 15.6C323.359 15.3227 323.199 14.8853 323.199 14.288V4.64H324.719V14.16C324.719 14.3413 324.767 14.48 324.863 14.576C324.959 14.672 325.092 14.72 325.263 14.72H325.983V16H324.959ZM330.744 16.192C329.944 16.192 329.245 16.0107 328.648 15.648C328.05 15.2853 327.586 14.7733 327.256 14.112C326.936 13.44 326.776 12.6507 326.776 11.744C326.776 10.8373 326.936 10.0533 327.256 9.392C327.586 8.73067 328.05 8.21867 328.648 7.856C329.245 7.49333 329.944 7.312 330.744 7.312C331.533 7.312 332.221 7.49333 332.808 7.856C333.405 8.21867 333.869 8.73067 334.2 9.392C334.53 10.0533 334.696 10.8373 334.696 11.744C334.696 12.6507 334.53 13.44 334.2 14.112C333.869 14.7733 333.405 15.2853 332.808 15.648C332.221 16.0107 331.533 16.192 330.744 16.192ZM330.744 14.816C331.49 14.816 332.072 14.544 332.488 14C332.904 13.456 333.112 12.704 333.112 11.744C333.112 10.7947 332.904 10.048 332.488 9.504C332.072 8.96 331.49 8.688 330.744 8.688C329.997 8.688 329.41 8.96 328.984 9.504C328.568 10.048 328.36 10.7947 328.36 11.744C328.36 12.704 328.568 13.456 328.984 14C329.41 14.544 329.997 14.816 330.744 14.816ZM336.316 16V7.504H337.676L337.74 9.712L337.612 9.664C337.719 8.91733 337.948 8.37333 338.3 8.032C338.663 7.68 339.143 7.504 339.74 7.504H340.572V8.896H339.756C339.329 8.896 338.972 8.97067 338.684 9.12C338.407 9.26933 338.193 9.49333 338.044 9.792C337.905 10.0907 337.836 10.4693 337.836 10.928V16H336.316Z" fill="#5E5E6B"/>
</svg>
