<svg width="218" height="125" viewBox="0 0 218 125" fill="none" xmlns="http://www.w3.org/2000/svg">
<path d="M130.658 77.2719V51.7359H135.122L135.266 58.4079L134.738 58.0239C135.058 56.4559 135.618 55.1759 136.418 54.1839C137.25 53.1599 138.258 52.4079 139.442 51.9279C140.626 51.4159 141.89 51.1599 143.234 51.1599C145.154 51.1599 146.738 51.5919 147.986 52.4559C149.234 53.2879 150.178 54.4399 150.818 55.9119C151.458 57.3519 151.778 58.9839 151.778 60.8079V77.2719H146.93V62.0559C146.93 59.8479 146.498 58.1839 145.634 57.0639C144.802 55.9439 143.538 55.3839 141.842 55.3839C140.658 55.3839 139.586 55.6399 138.626 56.1519C137.698 56.6639 136.946 57.4319 136.37 58.4559C135.794 59.4479 135.506 60.6799 135.506 62.1519V77.2719H130.658Z" fill="#171728"/>
<path d="M115.653 77.8479C113.253 77.8479 111.157 77.3039 109.365 76.2159C107.605 75.1279 106.229 73.5759 105.237 71.5599C104.277 69.5439 103.797 67.1919 103.797 64.5039C103.797 61.8159 104.277 59.4799 105.237 57.4959C106.229 55.5119 107.589 53.9599 109.317 52.8399C111.077 51.7199 113.141 51.1599 115.509 51.1599C117.781 51.1599 119.781 51.7039 121.509 52.7919C123.237 53.8479 124.581 55.3839 125.541 57.3999C126.533 59.3839 127.029 61.7839 127.029 64.5999V65.9439H108.885C109.045 68.3759 109.717 70.2319 110.901 71.5119C112.117 72.7599 113.717 73.3839 115.701 73.3839C117.205 73.3839 118.453 73.0319 119.445 72.3279C120.437 71.5919 121.125 70.6479 121.509 69.4959L126.597 69.8319C125.861 72.2639 124.533 74.2159 122.613 75.6879C120.725 77.1279 118.405 77.8479 115.653 77.8479ZM108.885 62.0559H121.797C121.605 59.8799 120.933 58.2639 119.781 57.2079C118.661 56.1519 117.237 55.6239 115.509 55.6239C113.717 55.6239 112.245 56.1679 111.093 57.2559C109.941 58.3439 109.205 59.9439 108.885 62.0559Z" fill="#171728"/>
<path d="M89.7518 77.8479C87.3518 77.8479 85.2558 77.3039 83.4638 76.2159C81.7038 75.1279 80.3278 73.5759 79.3358 71.5599C78.3758 69.5439 77.8958 67.1919 77.8958 64.5039C77.8958 61.8159 78.3758 59.4799 79.3358 57.4959C80.3278 55.5119 81.6878 53.9599 83.4158 52.8399C85.1758 51.7199 87.2398 51.1599 89.6078 51.1599C91.8798 51.1599 93.8798 51.7039 95.6078 52.7919C97.3358 53.8479 98.6798 55.3839 99.6398 57.3999C100.632 59.3839 101.128 61.7839 101.128 64.5999V65.9439H82.9838C83.1438 68.3759 83.8158 70.2319 84.9998 71.5119C86.2158 72.7599 87.8158 73.3839 89.7998 73.3839C91.3038 73.3839 92.5518 73.0319 93.5438 72.3279C94.5358 71.5919 95.2238 70.6479 95.6078 69.4959L100.696 69.8319C99.9598 72.2639 98.6318 74.2159 96.7118 75.6879C94.8238 77.1279 92.5038 77.8479 89.7518 77.8479ZM82.9838 62.0559H95.8958C95.7038 59.8799 95.0318 58.2639 93.8798 57.2079C92.7598 56.1519 91.3358 55.6239 89.6078 55.6239C87.8158 55.6239 86.3438 56.1679 85.1918 57.2559C84.0398 58.3439 83.3038 59.9439 82.9838 62.0559Z" fill="#171728"/>
<path d="M59.6265 77.272V51.736H63.4665L63.8985 58.264L63.4665 58.216C63.7865 56.008 64.4745 54.376 65.5305 53.32C66.5865 52.264 68.0425 51.736 69.8985 51.736H75.3225V55.96H70.0905C68.8745 55.96 67.8505 56.2 67.0185 56.68C66.1865 57.128 65.5465 57.816 65.0985 58.744C64.6825 59.64 64.4745 60.76 64.4745 62.104V77.272H59.6265ZM53.1465 77.272V73.192H72.4425V77.272H53.1465ZM53.1465 55.816V51.736H62.3625V55.816H53.1465Z" fill="#171728"/>
<path d="M38.1892 77.8479C35.8212 77.8479 33.7252 77.3039 31.9012 76.2159C30.1092 75.0959 28.7172 73.5439 27.7252 71.5599C26.7652 69.5439 26.2852 67.1919 26.2852 64.5039C26.2852 61.8159 26.7652 59.4799 27.7252 57.4959C28.7172 55.5119 30.1092 53.9599 31.9012 52.8399C33.7252 51.7199 35.8212 51.1599 38.1892 51.1599C40.1412 51.1599 41.8852 51.5279 43.4212 52.2639C44.9572 52.9679 46.2212 54.0079 47.2132 55.3839C48.2052 56.7599 48.8612 58.4079 49.1812 60.3279L44.2372 60.6639C43.8532 59.0319 43.1332 57.7839 42.0772 56.9199C41.0212 56.0559 39.7412 55.6239 38.2372 55.6239C36.0932 55.6239 34.3972 56.4239 33.1492 58.0239C31.9332 59.5919 31.3252 61.7519 31.3252 64.5039C31.3252 67.2559 31.9332 69.4319 33.1492 71.0319C34.3972 72.5999 36.0932 73.3839 38.2372 73.3839C39.7732 73.3839 41.0852 72.9359 42.1732 72.0399C43.2932 71.1119 44.0292 69.7519 44.3812 67.9599L49.3252 68.2479C49.0052 70.1999 48.3332 71.8959 47.3092 73.3359C46.2852 74.7439 44.9892 75.8479 43.4212 76.6479C41.8852 77.4479 40.1412 77.8479 38.1892 77.8479Z" fill="#171728"/>
<path d="M12.0961 77.8479C9.82411 77.8479 7.87211 77.4639 6.24011 76.6959C4.60811 75.9279 3.34411 74.9039 2.44811 73.6239C1.55211 72.3119 1.04011 70.8559 0.912109 69.2559L5.85611 68.9679C6.11211 70.3439 6.75211 71.4479 7.77611 72.2799C8.80011 73.0799 10.2561 73.4799 12.1441 73.4799C13.9041 73.4799 15.2481 73.2399 16.1761 72.7599C17.1041 72.2799 17.5681 71.5279 17.5681 70.5039C17.5681 69.8639 17.4081 69.3359 17.0881 68.9199C16.7681 68.4719 16.1601 68.1039 15.2641 67.8159C14.4001 67.4959 13.1201 67.1759 11.4241 66.8559C8.89611 66.3759 6.91211 65.8159 5.47211 65.1759C4.06411 64.5039 3.05611 63.6719 2.44811 62.6799C1.84011 61.6559 1.53611 60.4239 1.53611 58.9839C1.53611 57.5119 1.90411 56.1839 2.64011 54.9999C3.40811 53.8159 4.52811 52.8879 6.00011 52.2159C7.47211 51.5119 9.29611 51.1599 11.4721 51.1599C13.7441 51.1599 15.6161 51.5599 17.0881 52.3599C18.5601 53.1279 19.7121 54.1359 20.5441 55.3839C21.3761 56.6319 21.9041 57.9919 22.1281 59.4639L17.1841 59.7519C16.9921 58.9199 16.6561 58.1999 16.1761 57.5919C15.6961 56.9519 15.0561 56.4559 14.2561 56.1039C13.4561 55.7199 12.5281 55.5279 11.4721 55.5279C9.77611 55.5279 8.52811 55.8639 7.72811 56.5359C6.92811 57.2079 6.52811 58.0239 6.52811 58.9839C6.52811 59.7519 6.72011 60.3759 7.10411 60.8559C7.48811 61.3039 8.12811 61.6879 9.02411 62.0079C9.92011 62.2959 11.1361 62.5839 12.6721 62.8719C15.2641 63.2879 17.2641 63.8319 18.6721 64.5039C20.0801 65.1439 21.0721 65.9439 21.6481 66.9039C22.2241 67.8639 22.5121 69.0479 22.5121 70.4559C22.5121 71.9919 22.0641 73.3199 21.1681 74.4399C20.3041 75.5279 19.0881 76.3759 17.5201 76.9839C15.9841 77.5599 14.1761 77.8479 12.0961 77.8479Z" fill="#171728"/>
<path d="M89.7518 34.8479C87.3518 34.8479 85.2558 34.3039 83.4638 33.2159C81.7038 32.1279 80.3278 30.5759 79.3358 28.5599C78.3758 26.5439 77.8958 24.1919 77.8958 21.5039C77.8958 18.8159 78.3758 16.4799 79.3358 14.4959C80.3278 12.5119 81.6878 10.9599 83.4158 9.83991C85.1758 8.71991 87.2398 8.15991 89.6078 8.15991C91.8798 8.15991 93.8798 8.70391 95.6078 9.79191C97.3358 10.8479 98.6798 12.3839 99.6398 14.3999C100.632 16.3839 101.128 18.7839 101.128 21.5999V22.9439H82.9838C83.1438 25.3759 83.8158 27.2319 84.9998 28.5119C86.2158 29.7599 87.8158 30.3839 89.7998 30.3839C91.3038 30.3839 92.5518 30.0319 93.5438 29.3279C94.5358 28.5919 95.2238 27.6479 95.6078 26.4959L100.696 26.8319C99.9598 29.2639 98.6318 31.2159 96.7118 32.6879C94.8238 34.1279 92.5038 34.8479 89.7518 34.8479ZM82.9838 19.0559H95.8958C95.7038 16.8799 95.0318 15.2639 93.8798 14.2079C92.7598 13.1519 91.3358 12.6239 89.6078 12.6239C87.8158 12.6239 86.3438 13.1679 85.1918 14.2559C84.0398 15.3439 83.3038 16.9439 82.9838 19.0559Z" fill="#171728"/>
<path d="M52.9546 34.2719V8.73591H57.4186L57.5626 15.4079L57.0346 15.0239C57.3546 13.4559 57.9146 12.1759 58.7146 11.1839C59.5466 10.1599 60.5546 9.40791 61.7386 8.92791C62.9226 8.41591 64.1866 8.15991 65.5306 8.15991C67.4506 8.15991 69.0346 8.59191 70.2826 9.45591C71.5306 10.2879 72.4746 11.4399 73.1146 12.9119C73.7546 14.3519 74.0746 15.9839 74.0746 17.8079V34.2719H69.2266V19.0559C69.2266 16.8479 68.7946 15.1839 67.9306 14.0639C67.0986 12.9439 65.8346 12.3839 64.1386 12.3839C62.9546 12.3839 61.8826 12.6399 60.9226 13.1519C59.9946 13.6639 59.2426 14.4319 58.6666 15.4559C58.0906 16.4479 57.8026 17.6799 57.8026 19.1519V34.2719H52.9546Z" fill="#171728"/>
<path d="M36.8453 34.272V8.736H41.7413V34.272H36.8453ZM26.8613 34.272V30.192H50.2853V34.272H26.8613ZM27.3413 12.816V8.736H41.3093V12.816H27.3413ZM36.5573 5.04V0H41.5493V5.04H36.5573Z" fill="#171728"/>
<path d="M9.984 34.272V7.44002C9.984 6.44802 9.696 5.68002 9.12 5.13602C8.576 4.56002 7.808 4.27202 6.816 4.27202H0.96V0.192017H7.344C9.808 0.192017 11.664 0.832017 12.912 2.11202C14.192 3.36002 14.832 5.21602 14.832 7.68002V34.272H9.984ZM0 34.272V30.192H23.424V34.272H0Z" fill="#171728"/>
<path d="M199.817 98.0902H212.908V102.454H199.817V98.0902ZM195.453 102.454H199.817V106.817H212.908V102.454H217.271V111.181H199.817V119.908H195.453V102.454ZM199.817 119.908H212.908V124.272H199.817V119.908ZM212.908 115.545H217.271V119.908H212.908V115.545Z" fill="#9D8330"/>
<path d="M167.771 98.0902H172.134V102.454H176.498V106.817H172.134V124.272H167.771V98.0902ZM176.498 98.0902H185.225V102.454H176.498V98.0902ZM185.225 102.454H189.589V124.272H185.225V102.454Z" fill="#9D8330"/>
<path d="M144.452 98.0902H157.543V102.454H144.452V98.0902ZM157.543 102.454H161.906V119.908H157.543V102.454ZM140.088 102.454H144.452V119.908H140.088V102.454ZM144.452 119.908H157.543V124.272H144.452V119.908Z" fill="#9D8330"/>
<path d="M116.769 89.3629H121.133V98.0902H134.224V102.454H121.133V119.908H116.769V102.454H112.406V98.0902H116.769V89.3629ZM121.133 119.908H129.86V124.272H121.133V119.908ZM129.86 115.545H134.224V119.908H129.86V115.545Z" fill="#9D8330"/>
<path d="M89.0868 102.454H84.7231V98.0902H89.0868V93.7266H93.4504V98.0902H106.541V102.454H93.4504V119.908H102.178V124.272H84.7231V119.908H89.0868V102.454ZM93.4504 89.3629H106.541V93.7266H93.4504V89.3629Z" fill="#9D8330"/>
<path d="M65.7678 93.7266H57.0405V89.3629H70.1314V119.908H78.8587V124.272H57.0405V119.908H65.7678V93.7266Z" fill="#9D8330"/>
<path d="M29.3582 111.181H33.7218V119.908H29.3582V111.181ZM33.7218 119.908H42.4491V124.272H33.7218V119.908ZM42.4491 115.545H46.8127V111.181H33.7218V106.817H46.8127V102.454H51.1763V124.272H46.8127V119.908H42.4491V115.545ZM33.7218 98.0902H46.8127V102.454H33.7218V98.0902Z" fill="#9D8330"/>
<path d="M1.67554 89.3629H6.03917V102.454H10.4028V106.817H6.03917V124.272H1.67554V89.3629ZM19.1301 102.454H23.4937V124.272H19.1301V102.454ZM10.4028 98.0902H19.1301V102.454H10.4028V98.0902Z" fill="#9D8330"/>
</svg>
